<mxfile host="app.diagrams.net" modified="2023-04-17T12:53:51.089Z" agent="Mozilla/5.0 (Windows NT 10.0; Win64; x64; rv:109.0) Gecko/20100101 Firefox/112.0" etag="i1UpHSWbcmeLvlu3LupG" version="21.1.8" type="device">
  <diagram name="Page-1" id="5rs0R1cW3KDgV_vi_085">
    <mxGraphModel dx="1050" dy="497" grid="1" gridSize="10" guides="1" tooltips="1" connect="1" arrows="1" fold="1" page="1" pageScale="1" pageWidth="827" pageHeight="1169" math="0" shadow="0">
      <root>
        <mxCell id="0" />
        <mxCell id="1" parent="0" />
        <mxCell id="Ha74vbjWko5_8-gBTv0f-7" style="edgeStyle=none;shape=connector;rounded=0;orthogonalLoop=1;jettySize=auto;html=1;entryX=-0.02;entryY=0.513;entryDx=0;entryDy=0;entryPerimeter=0;labelBackgroundColor=default;strokeColor=default;fontFamily=Helvetica;fontSize=11;fontColor=default;endArrow=classic;" edge="1" parent="1" source="Ha74vbjWko5_8-gBTv0f-1" target="Ha74vbjWko5_8-gBTv0f-4">
          <mxGeometry relative="1" as="geometry" />
        </mxCell>
        <mxCell id="Ha74vbjWko5_8-gBTv0f-9" value="&lt;div&gt;Επιλογή&lt;/div&gt;&lt;div&gt;Ξενάγησης&lt;br&gt;&lt;/div&gt;" style="edgeLabel;html=1;align=center;verticalAlign=middle;resizable=0;points=[];fontSize=11;fontFamily=Helvetica;fontColor=default;" vertex="1" connectable="0" parent="Ha74vbjWko5_8-gBTv0f-7">
          <mxGeometry x="-0.2655" y="-1" relative="1" as="geometry">
            <mxPoint x="125" y="-77" as="offset" />
          </mxGeometry>
        </mxCell>
        <mxCell id="Ha74vbjWko5_8-gBTv0f-14" style="edgeStyle=none;shape=connector;rounded=0;orthogonalLoop=1;jettySize=auto;html=1;entryX=0;entryY=0.625;entryDx=0;entryDy=0;entryPerimeter=0;labelBackgroundColor=default;strokeColor=default;fontFamily=Helvetica;fontSize=11;fontColor=default;endArrow=classic;" edge="1" parent="1" source="Ha74vbjWko5_8-gBTv0f-1" target="Ha74vbjWko5_8-gBTv0f-12">
          <mxGeometry relative="1" as="geometry" />
        </mxCell>
        <mxCell id="Ha74vbjWko5_8-gBTv0f-15" value="&amp;nbsp;Συμπλήρωση link" style="edgeLabel;html=1;align=center;verticalAlign=middle;resizable=0;points=[];fontSize=11;fontFamily=Helvetica;fontColor=default;" vertex="1" connectable="0" parent="Ha74vbjWko5_8-gBTv0f-14">
          <mxGeometry x="-0.1945" y="-1" relative="1" as="geometry">
            <mxPoint x="119" y="-42" as="offset" />
          </mxGeometry>
        </mxCell>
        <mxCell id="Ha74vbjWko5_8-gBTv0f-24" style="edgeStyle=none;shape=connector;rounded=0;orthogonalLoop=1;jettySize=auto;html=1;entryX=0;entryY=0.488;entryDx=0;entryDy=0;entryPerimeter=0;labelBackgroundColor=default;strokeColor=default;fontFamily=Helvetica;fontSize=11;fontColor=default;endArrow=classic;" edge="1" parent="1" source="Ha74vbjWko5_8-gBTv0f-1" target="Ha74vbjWko5_8-gBTv0f-22">
          <mxGeometry relative="1" as="geometry" />
        </mxCell>
        <mxCell id="Ha74vbjWko5_8-gBTv0f-25" value="&lt;div&gt;Επιβεβαίωση&lt;/div&gt;&lt;div&gt;Συμμετοχής&lt;br&gt;&lt;/div&gt;" style="edgeLabel;html=1;align=center;verticalAlign=middle;resizable=0;points=[];fontSize=11;fontFamily=Helvetica;fontColor=default;" vertex="1" connectable="0" parent="Ha74vbjWko5_8-gBTv0f-24">
          <mxGeometry x="-0.2662" y="-3" relative="1" as="geometry">
            <mxPoint x="128" y="11" as="offset" />
          </mxGeometry>
        </mxCell>
        <mxCell id="Ha74vbjWko5_8-gBTv0f-36" style="edgeStyle=none;shape=connector;rounded=0;orthogonalLoop=1;jettySize=auto;html=1;entryX=0.03;entryY=0.475;entryDx=0;entryDy=0;entryPerimeter=0;labelBackgroundColor=default;strokeColor=default;fontFamily=Helvetica;fontSize=11;fontColor=default;endArrow=classic;" edge="1" parent="1" source="Ha74vbjWko5_8-gBTv0f-1" target="Ha74vbjWko5_8-gBTv0f-33">
          <mxGeometry relative="1" as="geometry" />
        </mxCell>
        <mxCell id="Ha74vbjWko5_8-gBTv0f-37" value="&lt;div&gt;Επιλογή ημ/νιας &lt;br&gt;&lt;/div&gt;&lt;div&gt;και αριθμού ατόμων&lt;br&gt;&lt;/div&gt;" style="edgeLabel;html=1;align=center;verticalAlign=middle;resizable=0;points=[];fontSize=11;fontFamily=Helvetica;fontColor=default;" vertex="1" connectable="0" parent="Ha74vbjWko5_8-gBTv0f-36">
          <mxGeometry x="0.3745" y="-1" relative="1" as="geometry">
            <mxPoint as="offset" />
          </mxGeometry>
        </mxCell>
        <mxCell id="Ha74vbjWko5_8-gBTv0f-49" style="edgeStyle=none;shape=connector;rounded=0;orthogonalLoop=1;jettySize=auto;html=1;entryX=0.32;entryY=0.15;entryDx=0;entryDy=0;entryPerimeter=0;labelBackgroundColor=default;strokeColor=default;fontFamily=Helvetica;fontSize=11;fontColor=default;endArrow=classic;" edge="1" parent="1" source="Ha74vbjWko5_8-gBTv0f-1" target="Ha74vbjWko5_8-gBTv0f-46">
          <mxGeometry relative="1" as="geometry" />
        </mxCell>
        <mxCell id="Ha74vbjWko5_8-gBTv0f-50" value="&lt;div&gt;Εισαγωγή στοιχείων&lt;/div&gt;&lt;div&gt;πληρωμής&lt;br&gt;&lt;/div&gt;" style="edgeLabel;html=1;align=center;verticalAlign=middle;resizable=0;points=[];fontSize=11;fontFamily=Helvetica;fontColor=default;" vertex="1" connectable="0" parent="Ha74vbjWko5_8-gBTv0f-49">
          <mxGeometry x="0.3919" y="-4" relative="1" as="geometry">
            <mxPoint as="offset" />
          </mxGeometry>
        </mxCell>
        <mxCell id="Ha74vbjWko5_8-gBTv0f-1" value="&lt;div&gt;Aπλός Χρήστης&lt;/div&gt;" style="shape=umlActor;verticalLabelPosition=bottom;verticalAlign=top;html=1;outlineConnect=0;" vertex="1" parent="1">
          <mxGeometry x="40" y="270" width="50" height="100" as="geometry" />
        </mxCell>
        <mxCell id="Ha74vbjWko5_8-gBTv0f-11" style="edgeStyle=none;shape=connector;rounded=0;orthogonalLoop=1;jettySize=auto;html=1;labelBackgroundColor=default;strokeColor=default;fontFamily=Helvetica;fontSize=11;fontColor=default;endArrow=classic;" edge="1" parent="1" source="Ha74vbjWko5_8-gBTv0f-4" target="Ha74vbjWko5_8-gBTv0f-10">
          <mxGeometry relative="1" as="geometry" />
        </mxCell>
        <mxCell id="Ha74vbjWko5_8-gBTv0f-4" value="Οθόνη προβολής ξεναγήσεων" style="shape=umlBoundary;whiteSpace=wrap;html=1;" vertex="1" parent="1">
          <mxGeometry x="430" y="50" width="100" height="80" as="geometry" />
        </mxCell>
        <mxCell id="Ha74vbjWko5_8-gBTv0f-6" style="rounded=0;orthogonalLoop=1;jettySize=auto;html=1;" edge="1" parent="1" source="Ha74vbjWko5_8-gBTv0f-5" target="Ha74vbjWko5_8-gBTv0f-4">
          <mxGeometry relative="1" as="geometry">
            <mxPoint x="650.4913736431176" y="56.67908897229984" as="sourcePoint" />
          </mxGeometry>
        </mxCell>
        <mxCell id="Ha74vbjWko5_8-gBTv0f-13" style="edgeStyle=none;shape=connector;rounded=0;orthogonalLoop=1;jettySize=auto;html=1;entryX=1;entryY=0.425;entryDx=0;entryDy=0;entryPerimeter=0;labelBackgroundColor=default;strokeColor=default;fontFamily=Helvetica;fontSize=11;fontColor=default;endArrow=classic;" edge="1" parent="1" source="Ha74vbjWko5_8-gBTv0f-10" target="Ha74vbjWko5_8-gBTv0f-12">
          <mxGeometry relative="1" as="geometry" />
        </mxCell>
        <mxCell id="Ha74vbjWko5_8-gBTv0f-10" value="Εμφάνισε" style="ellipse;shape=umlControl;whiteSpace=wrap;html=1;fontFamily=Helvetica;fontSize=11;fontColor=default;" vertex="1" parent="1">
          <mxGeometry x="650" y="120" width="70" height="80" as="geometry" />
        </mxCell>
        <mxCell id="Ha74vbjWko5_8-gBTv0f-16" style="edgeStyle=none;shape=connector;rounded=0;orthogonalLoop=1;jettySize=auto;html=1;labelBackgroundColor=default;strokeColor=default;fontFamily=Helvetica;fontSize=11;fontColor=default;endArrow=classic;" edge="1" parent="1" source="Ha74vbjWko5_8-gBTv0f-12" target="Ha74vbjWko5_8-gBTv0f-93">
          <mxGeometry relative="1" as="geometry">
            <mxPoint x="620" y="260" as="targetPoint" />
          </mxGeometry>
        </mxCell>
        <mxCell id="Ha74vbjWko5_8-gBTv0f-12" value="Οθόνη συμπλήρωση invite lnk" style="shape=umlBoundary;whiteSpace=wrap;html=1;fontFamily=Helvetica;fontSize=11;fontColor=default;" vertex="1" parent="1">
          <mxGeometry x="440" y="160" width="100" height="80" as="geometry" />
        </mxCell>
        <mxCell id="Ha74vbjWko5_8-gBTv0f-18" style="edgeStyle=none;shape=connector;rounded=0;orthogonalLoop=1;jettySize=auto;html=1;labelBackgroundColor=default;strokeColor=default;fontFamily=Helvetica;fontSize=11;fontColor=default;endArrow=classic;" edge="1" parent="1" source="Ha74vbjWko5_8-gBTv0f-17" target="Ha74vbjWko5_8-gBTv0f-19">
          <mxGeometry relative="1" as="geometry">
            <mxPoint x="810" y="260" as="targetPoint" />
          </mxGeometry>
        </mxCell>
        <mxCell id="Ha74vbjWko5_8-gBTv0f-17" value="Φόρτωσε" style="ellipse;shape=umlControl;whiteSpace=wrap;html=1;fontFamily=Helvetica;fontSize=11;fontColor=default;" vertex="1" parent="1">
          <mxGeometry x="780" y="170" width="70" height="80" as="geometry" />
        </mxCell>
        <mxCell id="Ha74vbjWko5_8-gBTv0f-20" style="edgeStyle=none;shape=connector;rounded=0;orthogonalLoop=1;jettySize=auto;html=1;labelBackgroundColor=default;strokeColor=default;fontFamily=Helvetica;fontSize=11;fontColor=default;endArrow=classic;" edge="1" parent="1" source="Ha74vbjWko5_8-gBTv0f-19" target="Ha74vbjWko5_8-gBTv0f-21">
          <mxGeometry relative="1" as="geometry">
            <mxPoint x="920" y="290" as="targetPoint" />
          </mxGeometry>
        </mxCell>
        <mxCell id="Ha74vbjWko5_8-gBTv0f-19" value="Ξενάγηση" style="ellipse;shape=umlEntity;whiteSpace=wrap;html=1;fontFamily=Helvetica;fontSize=11;fontColor=default;" vertex="1" parent="1">
          <mxGeometry x="905" y="170" width="80" height="80" as="geometry" />
        </mxCell>
        <mxCell id="Ha74vbjWko5_8-gBTv0f-23" style="edgeStyle=none;shape=connector;rounded=0;orthogonalLoop=1;jettySize=auto;html=1;entryX=1.01;entryY=0.45;entryDx=0;entryDy=0;entryPerimeter=0;labelBackgroundColor=default;strokeColor=default;fontFamily=Helvetica;fontSize=11;fontColor=default;endArrow=classic;" edge="1" parent="1" source="Ha74vbjWko5_8-gBTv0f-21" target="Ha74vbjWko5_8-gBTv0f-22">
          <mxGeometry relative="1" as="geometry" />
        </mxCell>
        <mxCell id="Ha74vbjWko5_8-gBTv0f-21" value="Εμφάνισε" style="ellipse;shape=umlControl;whiteSpace=wrap;html=1;fontFamily=Helvetica;fontSize=11;fontColor=default;" vertex="1" parent="1">
          <mxGeometry x="910" y="310" width="70" height="80" as="geometry" />
        </mxCell>
        <mxCell id="Ha74vbjWko5_8-gBTv0f-27" style="edgeStyle=none;shape=connector;rounded=0;orthogonalLoop=1;jettySize=auto;html=1;labelBackgroundColor=default;strokeColor=default;fontFamily=Helvetica;fontSize=11;fontColor=default;endArrow=classic;exitX=0.9;exitY=0.85;exitDx=0;exitDy=0;exitPerimeter=0;" edge="1" parent="1" source="Ha74vbjWko5_8-gBTv0f-22" target="Ha74vbjWko5_8-gBTv0f-28">
          <mxGeometry relative="1" as="geometry">
            <mxPoint x="610" y="420" as="targetPoint" />
          </mxGeometry>
        </mxCell>
        <mxCell id="Ha74vbjWko5_8-gBTv0f-22" value="Οθόνη Αναλυτικών Πληρ. Ξενάγησης" style="shape=umlBoundary;whiteSpace=wrap;html=1;fontFamily=Helvetica;fontSize=11;fontColor=default;" vertex="1" parent="1">
          <mxGeometry x="450" y="310" width="100" height="80" as="geometry" />
        </mxCell>
        <mxCell id="Ha74vbjWko5_8-gBTv0f-26" value="" style="rounded=0;orthogonalLoop=1;jettySize=auto;html=1;" edge="1" parent="1" target="Ha74vbjWko5_8-gBTv0f-5">
          <mxGeometry relative="1" as="geometry">
            <mxPoint x="650.4913736431176" y="56.67908897229984" as="sourcePoint" />
            <mxPoint x="530" y="80" as="targetPoint" />
          </mxGeometry>
        </mxCell>
        <mxCell id="Ha74vbjWko5_8-gBTv0f-5" value="Εμφάνισε" style="ellipse;shape=umlControl;whiteSpace=wrap;html=1;" vertex="1" parent="1">
          <mxGeometry x="610" width="70" height="80" as="geometry" />
        </mxCell>
        <mxCell id="Ha74vbjWko5_8-gBTv0f-30" style="edgeStyle=none;shape=connector;rounded=0;orthogonalLoop=1;jettySize=auto;html=1;labelBackgroundColor=default;strokeColor=default;fontFamily=Helvetica;fontSize=11;fontColor=default;endArrow=classic;" edge="1" parent="1" source="Ha74vbjWko5_8-gBTv0f-28" target="Ha74vbjWko5_8-gBTv0f-29">
          <mxGeometry relative="1" as="geometry" />
        </mxCell>
        <mxCell id="Ha74vbjWko5_8-gBTv0f-28" value="Φόρτωσε" style="ellipse;shape=umlControl;whiteSpace=wrap;html=1;fontFamily=Helvetica;fontSize=11;fontColor=default;" vertex="1" parent="1">
          <mxGeometry x="575" y="380" width="70" height="80" as="geometry" />
        </mxCell>
        <mxCell id="Ha74vbjWko5_8-gBTv0f-103" style="edgeStyle=none;shape=connector;rounded=0;orthogonalLoop=1;jettySize=auto;html=1;labelBackgroundColor=default;strokeColor=default;fontFamily=Helvetica;fontSize=11;fontColor=default;endArrow=classic;" edge="1" parent="1" source="Ha74vbjWko5_8-gBTv0f-29" target="Ha74vbjWko5_8-gBTv0f-102">
          <mxGeometry relative="1" as="geometry" />
        </mxCell>
        <mxCell id="Ha74vbjWko5_8-gBTv0f-29" value="Διεθέσιμες ημερ/νιες και ώρες" style="ellipse;shape=umlEntity;whiteSpace=wrap;html=1;fontFamily=Helvetica;fontSize=11;fontColor=default;" vertex="1" parent="1">
          <mxGeometry x="690" y="380" width="80" height="80" as="geometry" />
        </mxCell>
        <mxCell id="Ha74vbjWko5_8-gBTv0f-34" style="edgeStyle=none;shape=connector;rounded=0;orthogonalLoop=1;jettySize=auto;html=1;labelBackgroundColor=default;strokeColor=default;fontFamily=Helvetica;fontSize=11;fontColor=default;endArrow=classic;" edge="1" parent="1" source="Ha74vbjWko5_8-gBTv0f-31" target="Ha74vbjWko5_8-gBTv0f-33">
          <mxGeometry relative="1" as="geometry" />
        </mxCell>
        <mxCell id="Ha74vbjWko5_8-gBTv0f-31" value="Εμφάνισε" style="ellipse;shape=umlControl;whiteSpace=wrap;html=1;fontFamily=Helvetica;fontSize=11;fontColor=default;" vertex="1" parent="1">
          <mxGeometry x="645" y="470" width="70" height="80" as="geometry" />
        </mxCell>
        <mxCell id="Ha74vbjWko5_8-gBTv0f-39" style="edgeStyle=none;shape=connector;rounded=0;orthogonalLoop=1;jettySize=auto;html=1;labelBackgroundColor=default;strokeColor=default;fontFamily=Helvetica;fontSize=11;fontColor=default;endArrow=classic;" edge="1" parent="1" source="Ha74vbjWko5_8-gBTv0f-33" target="Ha74vbjWko5_8-gBTv0f-38">
          <mxGeometry relative="1" as="geometry" />
        </mxCell>
        <mxCell id="Ha74vbjWko5_8-gBTv0f-33" value="Οθόνη Διαθεσιμότητας" style="shape=umlBoundary;whiteSpace=wrap;html=1;fontFamily=Helvetica;fontSize=11;fontColor=default;" vertex="1" parent="1">
          <mxGeometry x="380" y="410" width="100" height="80" as="geometry" />
        </mxCell>
        <mxCell id="Ha74vbjWko5_8-gBTv0f-41" style="edgeStyle=none;shape=connector;rounded=0;orthogonalLoop=1;jettySize=auto;html=1;labelBackgroundColor=default;strokeColor=default;fontFamily=Helvetica;fontSize=11;fontColor=default;endArrow=classic;" edge="1" parent="1" source="Ha74vbjWko5_8-gBTv0f-38" target="Ha74vbjWko5_8-gBTv0f-40">
          <mxGeometry relative="1" as="geometry" />
        </mxCell>
        <mxCell id="Ha74vbjWko5_8-gBTv0f-42" value="Ναι" style="edgeLabel;html=1;align=center;verticalAlign=middle;resizable=0;points=[];fontSize=11;fontFamily=Helvetica;fontColor=default;" vertex="1" connectable="0" parent="Ha74vbjWko5_8-gBTv0f-41">
          <mxGeometry x="-0.3689" y="1" relative="1" as="geometry">
            <mxPoint as="offset" />
          </mxGeometry>
        </mxCell>
        <mxCell id="Ha74vbjWko5_8-gBTv0f-116" style="edgeStyle=none;shape=connector;rounded=0;orthogonalLoop=1;jettySize=auto;html=1;labelBackgroundColor=default;strokeColor=#FF0000;fontFamily=Helvetica;fontSize=11;fontColor=default;endArrow=classic;strokeWidth=2;" edge="1" parent="1" source="Ha74vbjWko5_8-gBTv0f-38" target="Ha74vbjWko5_8-gBTv0f-115">
          <mxGeometry relative="1" as="geometry">
            <Array as="points">
              <mxPoint x="640" y="590" />
            </Array>
          </mxGeometry>
        </mxCell>
        <mxCell id="Ha74vbjWko5_8-gBTv0f-117" value="Όχι" style="edgeLabel;html=1;align=center;verticalAlign=middle;resizable=0;points=[];fontSize=11;fontFamily=Helvetica;fontColor=default;" vertex="1" connectable="0" parent="Ha74vbjWko5_8-gBTv0f-116">
          <mxGeometry x="0.0769" y="-1" relative="1" as="geometry">
            <mxPoint x="-1" as="offset" />
          </mxGeometry>
        </mxCell>
        <mxCell id="Ha74vbjWko5_8-gBTv0f-38" value="Υπάρχει διαθεσιμότητα;" style="ellipse;shape=umlControl;whiteSpace=wrap;html=1;fontFamily=Helvetica;fontSize=11;fontColor=default;" vertex="1" parent="1">
          <mxGeometry x="535" y="510" width="85" height="90" as="geometry" />
        </mxCell>
        <mxCell id="Ha74vbjWko5_8-gBTv0f-44" style="edgeStyle=none;shape=connector;rounded=0;orthogonalLoop=1;jettySize=auto;html=1;labelBackgroundColor=default;strokeColor=default;fontFamily=Helvetica;fontSize=11;fontColor=default;endArrow=classic;" edge="1" parent="1" source="Ha74vbjWko5_8-gBTv0f-40" target="Ha74vbjWko5_8-gBTv0f-43">
          <mxGeometry relative="1" as="geometry" />
        </mxCell>
        <mxCell id="Ha74vbjWko5_8-gBTv0f-45" value="Όχι" style="edgeLabel;html=1;align=center;verticalAlign=middle;resizable=0;points=[];fontSize=11;fontFamily=Helvetica;fontColor=default;" vertex="1" connectable="0" parent="Ha74vbjWko5_8-gBTv0f-44">
          <mxGeometry x="0.3979" y="1" relative="1" as="geometry">
            <mxPoint as="offset" />
          </mxGeometry>
        </mxCell>
        <mxCell id="Ha74vbjWko5_8-gBTv0f-87" style="edgeStyle=none;shape=connector;rounded=0;orthogonalLoop=1;jettySize=auto;html=1;entryX=0.5;entryY=0;entryDx=0;entryDy=0;labelBackgroundColor=default;strokeColor=#FF0000;fontFamily=Helvetica;fontSize=11;fontColor=default;endArrow=classic;strokeWidth=2;" edge="1" parent="1" source="Ha74vbjWko5_8-gBTv0f-40" target="Ha74vbjWko5_8-gBTv0f-86">
          <mxGeometry relative="1" as="geometry" />
        </mxCell>
        <mxCell id="Ha74vbjWko5_8-gBTv0f-88" value="Ναι" style="edgeLabel;html=1;align=center;verticalAlign=middle;resizable=0;points=[];fontSize=11;fontFamily=Helvetica;fontColor=default;" vertex="1" connectable="0" parent="Ha74vbjWko5_8-gBTv0f-87">
          <mxGeometry x="-0.5615" y="1" relative="1" as="geometry">
            <mxPoint as="offset" />
          </mxGeometry>
        </mxCell>
        <mxCell id="Ha74vbjWko5_8-gBTv0f-40" value="&lt;div&gt;Δικαιούται&lt;/div&gt;&lt;div&gt;έκπτωση;&lt;br&gt;&lt;/div&gt;" style="ellipse;shape=umlControl;whiteSpace=wrap;html=1;fontFamily=Helvetica;fontSize=11;fontColor=default;" vertex="1" parent="1">
          <mxGeometry x="430" y="510" width="70" height="80" as="geometry" />
        </mxCell>
        <mxCell id="Ha74vbjWko5_8-gBTv0f-43" value="Εμφάνισε" style="ellipse;shape=umlControl;whiteSpace=wrap;html=1;fontFamily=Helvetica;fontSize=11;fontColor=default;" vertex="1" parent="1">
          <mxGeometry x="290" y="505" width="70" height="80" as="geometry" />
        </mxCell>
        <mxCell id="Ha74vbjWko5_8-gBTv0f-48" value="" style="edgeStyle=none;shape=connector;rounded=0;orthogonalLoop=1;jettySize=auto;html=1;labelBackgroundColor=default;strokeColor=default;fontFamily=Helvetica;fontSize=11;fontColor=default;endArrow=classic;" edge="1" parent="1" source="Ha74vbjWko5_8-gBTv0f-43" target="Ha74vbjWko5_8-gBTv0f-46">
          <mxGeometry relative="1" as="geometry">
            <mxPoint x="292" y="532" as="sourcePoint" />
            <mxPoint x="260" y="520" as="targetPoint" />
          </mxGeometry>
        </mxCell>
        <mxCell id="Ha74vbjWko5_8-gBTv0f-52" style="edgeStyle=none;shape=connector;rounded=0;orthogonalLoop=1;jettySize=auto;html=1;entryX=0.286;entryY=0.25;entryDx=0;entryDy=0;entryPerimeter=0;labelBackgroundColor=default;strokeColor=default;fontFamily=Helvetica;fontSize=11;fontColor=default;endArrow=classic;" edge="1" parent="1" source="Ha74vbjWko5_8-gBTv0f-46" target="Ha74vbjWko5_8-gBTv0f-51">
          <mxGeometry relative="1" as="geometry" />
        </mxCell>
        <mxCell id="Ha74vbjWko5_8-gBTv0f-46" value="Οθόνη Πληρωμής" style="shape=umlBoundary;whiteSpace=wrap;html=1;fontFamily=Helvetica;fontSize=11;fontColor=default;" vertex="1" parent="1">
          <mxGeometry x="150" y="460" width="100" height="80" as="geometry" />
        </mxCell>
        <mxCell id="Ha74vbjWko5_8-gBTv0f-54" style="edgeStyle=none;shape=connector;rounded=0;orthogonalLoop=1;jettySize=auto;html=1;labelBackgroundColor=default;strokeColor=default;fontFamily=Helvetica;fontSize=11;fontColor=default;endArrow=classic;" edge="1" parent="1" source="Ha74vbjWko5_8-gBTv0f-51" target="Ha74vbjWko5_8-gBTv0f-53">
          <mxGeometry relative="1" as="geometry" />
        </mxCell>
        <mxCell id="Ha74vbjWko5_8-gBTv0f-55" value="Ναι" style="edgeLabel;html=1;align=center;verticalAlign=middle;resizable=0;points=[];fontSize=11;fontFamily=Helvetica;fontColor=default;" vertex="1" connectable="0" parent="Ha74vbjWko5_8-gBTv0f-54">
          <mxGeometry x="0.2475" y="-4" relative="1" as="geometry">
            <mxPoint as="offset" />
          </mxGeometry>
        </mxCell>
        <mxCell id="Ha74vbjWko5_8-gBTv0f-80" style="edgeStyle=none;shape=connector;rounded=0;orthogonalLoop=1;jettySize=auto;html=1;entryX=0.357;entryY=0.988;entryDx=0;entryDy=0;entryPerimeter=0;labelBackgroundColor=default;strokeColor=#FF0000;fontFamily=Helvetica;fontSize=11;fontColor=default;endArrow=classic;strokeWidth=2;" edge="1" parent="1" source="Ha74vbjWko5_8-gBTv0f-51" target="Ha74vbjWko5_8-gBTv0f-43">
          <mxGeometry relative="1" as="geometry" />
        </mxCell>
        <mxCell id="Ha74vbjWko5_8-gBTv0f-81" value="Όχι" style="edgeLabel;html=1;align=center;verticalAlign=middle;resizable=0;points=[];fontSize=11;fontFamily=Helvetica;fontColor=default;" vertex="1" connectable="0" parent="Ha74vbjWko5_8-gBTv0f-80">
          <mxGeometry x="-0.5338" relative="1" as="geometry">
            <mxPoint as="offset" />
          </mxGeometry>
        </mxCell>
        <mxCell id="Ha74vbjWko5_8-gBTv0f-51" value="&lt;div&gt;Στοιχεία&lt;/div&gt;&lt;div&gt;πληρωμής&lt;/div&gt;&lt;div&gt;ΟΚ;&lt;br&gt;&lt;/div&gt;" style="ellipse;shape=umlControl;whiteSpace=wrap;html=1;fontFamily=Helvetica;fontSize=11;fontColor=default;" vertex="1" parent="1">
          <mxGeometry x="180" y="595" width="70" height="80" as="geometry" />
        </mxCell>
        <mxCell id="Ha74vbjWko5_8-gBTv0f-56" style="edgeStyle=none;shape=connector;rounded=0;orthogonalLoop=1;jettySize=auto;html=1;labelBackgroundColor=default;strokeColor=default;fontFamily=Helvetica;fontSize=11;fontColor=default;endArrow=classic;" edge="1" parent="1" source="Ha74vbjWko5_8-gBTv0f-53" target="Ha74vbjWko5_8-gBTv0f-57">
          <mxGeometry relative="1" as="geometry">
            <mxPoint x="270" y="850" as="targetPoint" />
          </mxGeometry>
        </mxCell>
        <mxCell id="Ha74vbjWko5_8-gBTv0f-53" value="&lt;div&gt;Εκτέλεσε&lt;/div&gt;&lt;div&gt;πληρωμή&lt;br&gt;&lt;/div&gt;" style="ellipse;shape=umlControl;whiteSpace=wrap;html=1;fontFamily=Helvetica;fontSize=11;fontColor=default;" vertex="1" parent="1">
          <mxGeometry x="220" y="720" width="70" height="80" as="geometry" />
        </mxCell>
        <mxCell id="Ha74vbjWko5_8-gBTv0f-59" style="edgeStyle=none;shape=connector;rounded=0;orthogonalLoop=1;jettySize=auto;html=1;entryX=0.014;entryY=0.5;entryDx=0;entryDy=0;entryPerimeter=0;labelBackgroundColor=default;strokeColor=default;fontFamily=Helvetica;fontSize=11;fontColor=default;endArrow=classic;" edge="1" parent="1" source="Ha74vbjWko5_8-gBTv0f-57" target="Ha74vbjWko5_8-gBTv0f-58">
          <mxGeometry relative="1" as="geometry" />
        </mxCell>
        <mxCell id="Ha74vbjWko5_8-gBTv0f-57" value="Στείλε αποδεικτικό πληρωμής" style="ellipse;shape=umlControl;whiteSpace=wrap;html=1;fontFamily=Helvetica;fontSize=11;fontColor=default;" vertex="1" parent="1">
          <mxGeometry x="250" y="830" width="70" height="80" as="geometry" />
        </mxCell>
        <mxCell id="Ha74vbjWko5_8-gBTv0f-82" style="edgeStyle=none;shape=connector;rounded=0;orthogonalLoop=1;jettySize=auto;html=1;labelBackgroundColor=default;strokeColor=default;fontFamily=Helvetica;fontSize=11;fontColor=default;endArrow=classic;" edge="1" parent="1" source="Ha74vbjWko5_8-gBTv0f-58" target="Ha74vbjWko5_8-gBTv0f-60">
          <mxGeometry relative="1" as="geometry" />
        </mxCell>
        <mxCell id="Ha74vbjWko5_8-gBTv0f-58" value="Στείλε certificate συμμετοχής" style="ellipse;shape=umlControl;whiteSpace=wrap;html=1;fontFamily=Helvetica;fontSize=11;fontColor=default;" vertex="1" parent="1">
          <mxGeometry x="379" y="830" width="70" height="80" as="geometry" />
        </mxCell>
        <mxCell id="Ha74vbjWko5_8-gBTv0f-63" style="edgeStyle=none;shape=connector;rounded=0;orthogonalLoop=1;jettySize=auto;html=1;entryX=0;entryY=0.5;entryDx=0;entryDy=0;labelBackgroundColor=default;strokeColor=default;fontFamily=Helvetica;fontSize=11;fontColor=default;endArrow=classic;" edge="1" parent="1" source="Ha74vbjWko5_8-gBTv0f-60" target="Ha74vbjWko5_8-gBTv0f-62">
          <mxGeometry relative="1" as="geometry" />
        </mxCell>
        <mxCell id="Ha74vbjWko5_8-gBTv0f-60" value="Αποθήκευσε" style="ellipse;shape=umlControl;whiteSpace=wrap;html=1;fontFamily=Helvetica;fontSize=11;fontColor=default;" vertex="1" parent="1">
          <mxGeometry x="500" y="830" width="70" height="80" as="geometry" />
        </mxCell>
        <mxCell id="Ha74vbjWko5_8-gBTv0f-64" style="edgeStyle=none;shape=connector;rounded=0;orthogonalLoop=1;jettySize=auto;html=1;labelBackgroundColor=default;strokeColor=default;fontFamily=Helvetica;fontSize=11;fontColor=default;endArrow=classic;" edge="1" parent="1" source="Ha74vbjWko5_8-gBTv0f-62" target="Ha74vbjWko5_8-gBTv0f-65">
          <mxGeometry relative="1" as="geometry">
            <mxPoint x="770" y="870" as="targetPoint" />
          </mxGeometry>
        </mxCell>
        <mxCell id="Ha74vbjWko5_8-gBTv0f-62" value="Συμμετοχή Χρήστη" style="ellipse;shape=umlEntity;whiteSpace=wrap;html=1;fontFamily=Helvetica;fontSize=11;fontColor=default;" vertex="1" parent="1">
          <mxGeometry x="620" y="830" width="80" height="80" as="geometry" />
        </mxCell>
        <mxCell id="Ha74vbjWko5_8-gBTv0f-84" style="edgeStyle=none;shape=connector;rounded=0;orthogonalLoop=1;jettySize=auto;html=1;labelBackgroundColor=default;strokeColor=default;fontFamily=Helvetica;fontSize=11;fontColor=default;endArrow=classic;" edge="1" parent="1" source="Ha74vbjWko5_8-gBTv0f-65" target="Ha74vbjWko5_8-gBTv0f-74">
          <mxGeometry relative="1" as="geometry" />
        </mxCell>
        <mxCell id="Ha74vbjWko5_8-gBTv0f-65" value="Ενημέρωσε στατιστικά" style="ellipse;shape=umlControl;whiteSpace=wrap;html=1;fontFamily=Helvetica;fontSize=11;fontColor=default;" vertex="1" parent="1">
          <mxGeometry x="625" y="950" width="70" height="80" as="geometry" />
        </mxCell>
        <mxCell id="Ha74vbjWko5_8-gBTv0f-72" style="edgeStyle=none;shape=connector;rounded=0;orthogonalLoop=1;jettySize=auto;html=1;labelBackgroundColor=default;strokeColor=#FF0000;fontFamily=Helvetica;fontSize=11;fontColor=default;endArrow=classic;strokeWidth=2;" edge="1" parent="1" source="Ha74vbjWko5_8-gBTv0f-69" target="Ha74vbjWko5_8-gBTv0f-71">
          <mxGeometry relative="1" as="geometry" />
        </mxCell>
        <mxCell id="Ha74vbjWko5_8-gBTv0f-69" value="Εμφάνισε" style="ellipse;shape=umlControl;whiteSpace=wrap;html=1;fontFamily=Helvetica;fontSize=11;fontColor=default;" vertex="1" parent="1">
          <mxGeometry x="727" y="1060" width="70" height="80" as="geometry" />
        </mxCell>
        <mxCell id="Ha74vbjWko5_8-gBTv0f-71" value="Οθόνη Εικονικής Ξενάγησης" style="shape=umlBoundary;whiteSpace=wrap;html=1;fontFamily=Helvetica;fontSize=11;fontColor=default;" vertex="1" parent="1">
          <mxGeometry x="520" y="1060" width="100" height="80" as="geometry" />
        </mxCell>
        <mxCell id="Ha74vbjWko5_8-gBTv0f-78" style="edgeStyle=none;shape=connector;rounded=0;orthogonalLoop=1;jettySize=auto;html=1;entryX=0.5;entryY=0.213;entryDx=0;entryDy=0;entryPerimeter=0;labelBackgroundColor=default;strokeColor=#FF0000;fontFamily=Helvetica;fontSize=11;fontColor=default;endArrow=classic;strokeWidth=2;" edge="1" parent="1" source="Ha74vbjWko5_8-gBTv0f-74" target="Ha74vbjWko5_8-gBTv0f-69">
          <mxGeometry relative="1" as="geometry">
            <mxPoint x="470" y="930" as="sourcePoint" />
          </mxGeometry>
        </mxCell>
        <mxCell id="Ha74vbjWko5_8-gBTv0f-79" value="Ναι" style="edgeLabel;html=1;align=center;verticalAlign=middle;resizable=0;points=[];fontSize=11;fontFamily=Helvetica;fontColor=default;" vertex="1" connectable="0" parent="Ha74vbjWko5_8-gBTv0f-78">
          <mxGeometry x="-0.3765" relative="1" as="geometry">
            <mxPoint as="offset" />
          </mxGeometry>
        </mxCell>
        <mxCell id="Ha74vbjWko5_8-gBTv0f-74" value="Είναι Virual Tour?" style="ellipse;shape=umlControl;whiteSpace=wrap;html=1;fontFamily=Helvetica;fontSize=11;fontColor=default;" vertex="1" parent="1">
          <mxGeometry x="727" y="950" width="70" height="80" as="geometry" />
        </mxCell>
        <mxCell id="Ha74vbjWko5_8-gBTv0f-90" style="edgeStyle=none;shape=connector;rounded=0;orthogonalLoop=1;jettySize=auto;html=1;entryX=0.8;entryY=0.95;entryDx=0;entryDy=0;entryPerimeter=0;labelBackgroundColor=default;strokeColor=#FF0000;fontFamily=Helvetica;fontSize=11;fontColor=default;endArrow=classic;strokeWidth=2;" edge="1" parent="1" source="Ha74vbjWko5_8-gBTv0f-85" target="Ha74vbjWko5_8-gBTv0f-43">
          <mxGeometry relative="1" as="geometry" />
        </mxCell>
        <mxCell id="Ha74vbjWko5_8-gBTv0f-85" value="Εφάρμοσε έκπτωση" style="ellipse;shape=umlControl;whiteSpace=wrap;html=1;fontFamily=Helvetica;fontSize=11;fontColor=default;" vertex="1" parent="1">
          <mxGeometry x="340" y="620" width="70" height="80" as="geometry" />
        </mxCell>
        <mxCell id="Ha74vbjWko5_8-gBTv0f-89" style="edgeStyle=none;shape=connector;rounded=0;orthogonalLoop=1;jettySize=auto;html=1;labelBackgroundColor=default;strokeColor=#FF0000;fontFamily=Helvetica;fontSize=11;fontColor=default;endArrow=classic;strokeWidth=2;" edge="1" parent="1" source="Ha74vbjWko5_8-gBTv0f-86" target="Ha74vbjWko5_8-gBTv0f-85">
          <mxGeometry relative="1" as="geometry" />
        </mxCell>
        <mxCell id="Ha74vbjWko5_8-gBTv0f-86" value="Έκπτωση" style="ellipse;shape=umlEntity;whiteSpace=wrap;html=1;fontFamily=Helvetica;fontSize=11;fontColor=default;" vertex="1" parent="1">
          <mxGeometry x="425" y="620" width="80" height="80" as="geometry" />
        </mxCell>
        <mxCell id="Ha74vbjWko5_8-gBTv0f-94" value="Όχι" style="edgeStyle=none;shape=connector;rounded=0;orthogonalLoop=1;jettySize=auto;html=1;labelBackgroundColor=default;strokeColor=default;fontFamily=Helvetica;fontSize=11;fontColor=default;endArrow=classic;" edge="1" parent="1" source="Ha74vbjWko5_8-gBTv0f-93" target="Ha74vbjWko5_8-gBTv0f-17">
          <mxGeometry relative="1" as="geometry" />
        </mxCell>
        <mxCell id="Ha74vbjWko5_8-gBTv0f-96" style="edgeStyle=none;shape=connector;rounded=0;orthogonalLoop=1;jettySize=auto;html=1;entryX=0.029;entryY=0.45;entryDx=0;entryDy=0;entryPerimeter=0;labelBackgroundColor=default;strokeColor=#FF0000;fontFamily=Helvetica;fontSize=11;fontColor=default;endArrow=classic;strokeWidth=2;" edge="1" parent="1" source="Ha74vbjWko5_8-gBTv0f-93" target="Ha74vbjWko5_8-gBTv0f-95">
          <mxGeometry relative="1" as="geometry">
            <Array as="points">
              <mxPoint x="630" y="280" />
            </Array>
          </mxGeometry>
        </mxCell>
        <mxCell id="Ha74vbjWko5_8-gBTv0f-99" value="Ναι" style="edgeLabel;html=1;align=center;verticalAlign=middle;resizable=0;points=[];fontSize=11;fontFamily=Helvetica;fontColor=default;" vertex="1" connectable="0" parent="Ha74vbjWko5_8-gBTv0f-96">
          <mxGeometry x="-0.3373" y="4" relative="1" as="geometry">
            <mxPoint y="-1" as="offset" />
          </mxGeometry>
        </mxCell>
        <mxCell id="Ha74vbjWko5_8-gBTv0f-93" value="Συμπληρώθηκε link?" style="ellipse;shape=umlControl;whiteSpace=wrap;html=1;fontFamily=Helvetica;fontSize=11;fontColor=default;" vertex="1" parent="1">
          <mxGeometry x="550" y="200" width="85" height="90" as="geometry" />
        </mxCell>
        <mxCell id="Ha74vbjWko5_8-gBTv0f-100" style="edgeStyle=none;shape=connector;rounded=0;orthogonalLoop=1;jettySize=auto;html=1;labelBackgroundColor=default;strokeColor=#FF0000;fontFamily=Helvetica;fontSize=11;fontColor=default;endArrow=classic;strokeWidth=2;" edge="1" parent="1" source="Ha74vbjWko5_8-gBTv0f-95" target="Ha74vbjWko5_8-gBTv0f-98">
          <mxGeometry relative="1" as="geometry" />
        </mxCell>
        <mxCell id="Ha74vbjWko5_8-gBTv0f-95" value="Link OK?" style="ellipse;shape=umlControl;whiteSpace=wrap;html=1;fontFamily=Helvetica;fontSize=11;fontColor=default;" vertex="1" parent="1">
          <mxGeometry x="650" y="260" width="70" height="80" as="geometry" />
        </mxCell>
        <mxCell id="Ha74vbjWko5_8-gBTv0f-101" style="edgeStyle=none;shape=connector;rounded=0;orthogonalLoop=1;jettySize=auto;html=1;labelBackgroundColor=default;strokeColor=default;fontFamily=Helvetica;fontSize=11;fontColor=default;endArrow=classic;" edge="1" parent="1" source="Ha74vbjWko5_8-gBTv0f-98" target="Ha74vbjWko5_8-gBTv0f-17">
          <mxGeometry relative="1" as="geometry" />
        </mxCell>
        <mxCell id="Ha74vbjWko5_8-gBTv0f-98" value="Ενημέρωσε σκορ" style="ellipse;shape=umlControl;whiteSpace=wrap;html=1;fontFamily=Helvetica;fontSize=11;fontColor=default;" vertex="1" parent="1">
          <mxGeometry x="740" y="260" width="70" height="80" as="geometry" />
        </mxCell>
        <mxCell id="Ha74vbjWko5_8-gBTv0f-104" style="edgeStyle=none;shape=connector;rounded=0;orthogonalLoop=1;jettySize=auto;html=1;entryX=0.986;entryY=0.513;entryDx=0;entryDy=0;entryPerimeter=0;labelBackgroundColor=default;strokeColor=default;fontFamily=Helvetica;fontSize=11;fontColor=default;endArrow=classic;exitX=0.188;exitY=0.967;exitDx=0;exitDy=0;exitPerimeter=0;" edge="1" parent="1" source="Ha74vbjWko5_8-gBTv0f-102" target="Ha74vbjWko5_8-gBTv0f-31">
          <mxGeometry relative="1" as="geometry" />
        </mxCell>
        <mxCell id="Ha74vbjWko5_8-gBTv0f-105" value="Ναι" style="edgeLabel;html=1;align=center;verticalAlign=middle;resizable=0;points=[];fontSize=11;fontFamily=Helvetica;fontColor=default;" vertex="1" connectable="0" parent="Ha74vbjWko5_8-gBTv0f-104">
          <mxGeometry x="-0.3115" y="-3" relative="1" as="geometry">
            <mxPoint as="offset" />
          </mxGeometry>
        </mxCell>
        <mxCell id="Ha74vbjWko5_8-gBTv0f-107" style="edgeStyle=none;shape=connector;rounded=0;orthogonalLoop=1;jettySize=auto;html=1;entryX=0.386;entryY=0.113;entryDx=0;entryDy=0;entryPerimeter=0;labelBackgroundColor=default;strokeColor=#FF0000;fontFamily=Helvetica;fontSize=11;fontColor=default;endArrow=classic;strokeWidth=2;" edge="1" parent="1" source="Ha74vbjWko5_8-gBTv0f-102" target="Ha74vbjWko5_8-gBTv0f-106">
          <mxGeometry relative="1" as="geometry" />
        </mxCell>
        <mxCell id="Ha74vbjWko5_8-gBTv0f-108" value="Όχι" style="edgeLabel;html=1;align=center;verticalAlign=middle;resizable=0;points=[];fontSize=11;fontFamily=Helvetica;fontColor=default;" vertex="1" connectable="0" parent="Ha74vbjWko5_8-gBTv0f-107">
          <mxGeometry x="-0.393" y="-4" relative="1" as="geometry">
            <mxPoint as="offset" />
          </mxGeometry>
        </mxCell>
        <mxCell id="Ha74vbjWko5_8-gBTv0f-102" value="Υπάρχει διαθεσιμότητα" style="ellipse;shape=umlControl;whiteSpace=wrap;html=1;fontFamily=Helvetica;fontSize=11;fontColor=default;" vertex="1" parent="1">
          <mxGeometry x="810" y="375" width="80" height="90" as="geometry" />
        </mxCell>
        <mxCell id="Ha74vbjWko5_8-gBTv0f-110" value="" style="edgeStyle=none;shape=connector;rounded=0;orthogonalLoop=1;jettySize=auto;html=1;labelBackgroundColor=default;strokeColor=#FF0000;fontFamily=Helvetica;fontSize=11;fontColor=default;endArrow=classic;strokeWidth=2;" edge="1" parent="1" source="Ha74vbjWko5_8-gBTv0f-106" target="Ha74vbjWko5_8-gBTv0f-109">
          <mxGeometry relative="1" as="geometry" />
        </mxCell>
        <mxCell id="Ha74vbjWko5_8-gBTv0f-106" value="Εμφάνισε μήνυμα μη διαθεσιμότητας" style="ellipse;shape=umlControl;whiteSpace=wrap;html=1;fontFamily=Helvetica;fontSize=11;fontColor=default;" vertex="1" parent="1">
          <mxGeometry x="930" y="430" width="93" height="100" as="geometry" />
        </mxCell>
        <mxCell id="Ha74vbjWko5_8-gBTv0f-112" style="edgeStyle=none;shape=connector;rounded=0;orthogonalLoop=1;jettySize=auto;html=1;labelBackgroundColor=default;strokeColor=#FF0000;fontFamily=Helvetica;fontSize=11;fontColor=default;endArrow=classic;strokeWidth=2;" edge="1" parent="1" source="Ha74vbjWko5_8-gBTv0f-109" target="Ha74vbjWko5_8-gBTv0f-111">
          <mxGeometry relative="1" as="geometry" />
        </mxCell>
        <mxCell id="Ha74vbjWko5_8-gBTv0f-109" value="Εμφάνισε" style="ellipse;shape=umlControl;whiteSpace=wrap;html=1;fontFamily=Helvetica;fontSize=11;fontColor=default;" vertex="1" parent="1">
          <mxGeometry x="890" y="550" width="70" height="70" as="geometry" />
        </mxCell>
        <mxCell id="Ha74vbjWko5_8-gBTv0f-111" value="Οθόνη προβολής ξεναγήσεων" style="shape=umlBoundary;whiteSpace=wrap;html=1;" vertex="1" parent="1">
          <mxGeometry x="875" y="675" width="100" height="80" as="geometry" />
        </mxCell>
        <mxCell id="Ha74vbjWko5_8-gBTv0f-118" style="edgeStyle=none;shape=connector;rounded=0;orthogonalLoop=1;jettySize=auto;html=1;labelBackgroundColor=default;strokeColor=#FF0000;fontFamily=Helvetica;fontSize=11;fontColor=default;endArrow=classic;strokeWidth=2;" edge="1" parent="1" source="Ha74vbjWko5_8-gBTv0f-115" target="Ha74vbjWko5_8-gBTv0f-109">
          <mxGeometry relative="1" as="geometry" />
        </mxCell>
        <mxCell id="Ha74vbjWko5_8-gBTv0f-115" value="Εμφάνισε μήνυμα μη διαθεσιμόητας ατόμων" style="ellipse;shape=umlControl;whiteSpace=wrap;html=1;fontFamily=Helvetica;fontSize=11;fontColor=default;" vertex="1" parent="1">
          <mxGeometry x="680" y="585" width="80" height="90" as="geometry" />
        </mxCell>
      </root>
    </mxGraphModel>
  </diagram>
</mxfile>
